<?xml version="1.0" encoding="UTF-8"?>
<!-- Generator: https://ezgif.com/png-to-svg -->
<svg version="1.1" xmlns="http://www.w3.org/2000/svg" width="1024" height="1024">
<path d="M0 0 C0.96 -0 1.93 -0 2.92 -0.01 C6.14 -0.01 9.36 -0.01 12.57 -0.01 C14.91 -0.01 17.24 -0.01 19.58 -0.02 C25.32 -0.03 31.06 -0.03 36.79 -0.03 C43.67 -0.03 50.55 -0.04 57.42 -0.04 C74.04 -0.06 90.66 -0.06 107.28 -0.07 C115.15 -0.07 123.02 -0.08 130.89 -0.08 C157.85 -0.09 184.81 -0.1 211.77 -0.11 C213.46 -0.11 215.15 -0.11 216.84 -0.11 C218.54 -0.11 220.23 -0.11 221.93 -0.11 C225.33 -0.11 228.73 -0.11 232.13 -0.11 C232.97 -0.11 233.82 -0.11 234.69 -0.11 C262.01 -0.11 289.33 -0.13 316.65 -0.15 C345.56 -0.18 374.48 -0.19 403.4 -0.19 C406.57 -0.19 409.75 -0.19 412.93 -0.19 C413.71 -0.19 414.5 -0.19 415.3 -0.19 C427.86 -0.19 440.42 -0.2 452.97 -0.22 C465.61 -0.23 478.25 -0.24 490.89 -0.23 C497.73 -0.22 504.57 -0.23 511.41 -0.24 C517.68 -0.25 523.96 -0.25 530.23 -0.24 C532.49 -0.24 534.74 -0.24 537 -0.25 C556.1 -0.32 575.02 1.14 593.59 5.88 C594.62 6.14 595.65 6.39 596.71 6.66 C614.21 11.13 630.72 17.24 646.96 25.13 C647.68 25.48 648.41 25.83 649.15 26.18 C706.84 54.34 752.03 106.98 773.07 167.37 C780.69 190.17 786.14 214.03 786.09 238.17 C786.1 239.61 786.1 239.61 786.1 241.09 C786.11 244.31 786.1 247.52 786.1 250.74 C786.11 253.08 786.11 255.41 786.11 257.75 C786.12 263.49 786.12 269.22 786.12 274.96 C786.12 281.84 786.13 288.71 786.14 295.59 C786.15 312.21 786.16 328.83 786.16 345.45 C786.17 353.32 786.17 361.19 786.17 369.06 C786.19 396.02 786.2 422.98 786.2 449.94 C786.2 451.63 786.2 453.32 786.2 455.01 C786.2 456.7 786.2 458.4 786.2 460.1 C786.2 463.5 786.2 466.9 786.2 470.3 C786.2 471.14 786.2 471.98 786.2 472.85 C786.21 500.17 786.22 527.5 786.25 554.82 C786.27 583.73 786.28 612.65 786.29 641.56 C786.29 644.74 786.29 647.92 786.29 651.1 C786.29 651.88 786.29 652.66 786.29 653.47 C786.29 666.03 786.3 678.58 786.31 691.14 C786.33 703.78 786.33 716.42 786.32 729.06 C786.32 735.9 786.32 742.74 786.33 749.58 C786.35 755.85 786.35 762.12 786.33 768.4 C786.33 770.65 786.33 772.91 786.34 775.17 C786.41 794.27 784.95 813.19 780.21 831.76 C779.96 832.79 779.7 833.82 779.44 834.88 C774.96 852.38 768.85 868.89 760.96 885.13 C760.44 886.21 760.44 886.21 759.91 887.32 C731.75 945.01 679.12 990.2 618.73 1011.24 C595.92 1018.85 572.07 1024.31 547.93 1024.26 C546.96 1024.26 546 1024.27 545.01 1024.27 C541.79 1024.27 538.57 1024.27 535.35 1024.27 C533.02 1024.27 530.68 1024.28 528.35 1024.28 C522.61 1024.29 516.87 1024.29 511.13 1024.29 C504.26 1024.29 497.38 1024.3 490.5 1024.31 C473.88 1024.32 457.27 1024.33 440.65 1024.33 C432.78 1024.33 424.91 1024.34 417.04 1024.34 C390.08 1024.35 363.12 1024.37 336.16 1024.37 C334.47 1024.37 332.78 1024.37 331.09 1024.37 C329.39 1024.37 327.69 1024.37 326 1024.37 C322.6 1024.37 319.2 1024.37 315.8 1024.37 C314.95 1024.37 314.11 1024.37 313.24 1024.37 C285.92 1024.38 258.6 1024.39 231.28 1024.41 C202.36 1024.44 173.45 1024.45 144.53 1024.45 C141.35 1024.45 138.17 1024.45 135 1024.45 C134.21 1024.46 133.43 1024.46 132.62 1024.46 C120.07 1024.46 107.51 1024.47 94.95 1024.48 C82.31 1024.5 69.67 1024.5 57.03 1024.49 C50.2 1024.49 43.36 1024.49 36.52 1024.5 C30.25 1024.52 23.97 1024.51 17.7 1024.5 C15.44 1024.5 13.18 1024.5 10.93 1024.51 C-8.18 1024.58 -27.09 1023.12 -45.66 1018.38 C-46.69 1018.12 -47.72 1017.87 -48.79 1017.6 C-66.29 1013.13 -82.8 1007.02 -99.04 999.13 C-100.12 998.61 -100.12 998.61 -101.22 998.08 C-158.92 969.92 -204.1 917.29 -225.14 856.9 C-232.76 834.09 -238.22 810.24 -238.17 786.09 C-238.17 785.13 -238.17 784.17 -238.17 783.17 C-238.18 779.96 -238.18 776.74 -238.18 773.52 C-238.18 771.19 -238.18 768.85 -238.19 766.51 C-238.19 760.78 -238.2 755.04 -238.2 749.3 C-238.2 742.42 -238.2 735.55 -238.21 728.67 C-238.23 712.05 -238.23 695.43 -238.24 678.81 C-238.24 670.95 -238.24 663.08 -238.25 655.21 C-238.26 628.25 -238.27 601.29 -238.27 574.33 C-238.27 572.64 -238.27 570.95 -238.28 569.25 C-238.28 567.56 -238.28 565.86 -238.28 564.17 C-238.28 560.77 -238.28 557.37 -238.28 553.96 C-238.28 553.12 -238.28 552.28 -238.28 551.41 C-238.28 524.09 -238.3 496.77 -238.32 469.45 C-238.34 440.53 -238.36 411.61 -238.36 382.7 C-238.36 379.52 -238.36 376.34 -238.36 373.16 C-238.36 372.38 -238.36 371.6 -238.36 370.79 C-238.36 358.24 -238.37 345.68 -238.39 333.12 C-238.4 320.48 -238.4 307.84 -238.4 295.2 C-238.39 288.36 -238.39 281.53 -238.41 274.69 C-238.42 268.41 -238.42 262.14 -238.41 255.86 C-238.41 253.61 -238.41 251.35 -238.42 249.1 C-238.49 229.99 -237.02 211.08 -232.29 192.51 C-231.9 190.96 -231.9 190.96 -231.51 189.38 C-227.04 171.88 -220.92 155.37 -213.04 139.13 C-212.69 138.41 -212.34 137.69 -211.98 136.95 C-183.82 79.25 -131.19 34.07 -70.8 13.03 C-48 5.41 -24.14 -0.05 0 0 Z " fill="#043D08" transform="translate(238.03689861297607,-0.13142776489257813)"/>
<path d="M0 0 C8.86 5.93 14.78 14.52 17 25 C17.09 26.35 17.13 27.71 17.13 29.06 C17.13 30.27 17.13 30.27 17.14 31.5 C17.14 32.39 17.13 33.27 17.13 34.18 C17.13 35.12 17.14 36.06 17.14 37.03 C17.14 40.22 17.14 43.41 17.14 46.59 C17.14 48.89 17.15 51.19 17.15 53.48 C17.16 59.81 17.16 66.15 17.16 72.48 C17.16 78.6 17.17 84.72 17.17 90.84 C17.19 107.25 17.2 123.65 17.2 140.06 C17.2 147.82 17.21 155.58 17.21 163.34 C17.22 189.9 17.23 216.46 17.24 243.02 C17.24 244.69 17.24 246.36 17.24 248.02 C17.24 249.7 17.24 251.37 17.24 253.04 C17.24 256.39 17.24 259.75 17.24 263.1 C17.24 264.35 17.24 264.35 17.24 265.62 C17.24 292.58 17.26 319.54 17.28 346.5 C17.31 375 17.32 403.51 17.32 432.01 C17.32 435.14 17.32 438.27 17.32 441.39 C17.32 442.55 17.32 442.55 17.32 443.73 C17.32 456.13 17.34 468.53 17.35 480.92 C17.36 493.39 17.37 505.85 17.36 518.31 C17.36 525.06 17.36 531.82 17.37 538.57 C17.38 544.75 17.38 550.93 17.37 557.11 C17.37 559.35 17.37 561.58 17.38 563.82 C17.49 592.81 17.49 592.81 6.37 604.75 C-0.66 611.27 -9.3 614.34 -18.84 614.14 C-28.39 613.51 -36.81 609.8 -43.38 602.69 C-48.01 596.78 -51.12 589.46 -51.13 581.9 C-51.13 581.09 -51.14 580.28 -51.14 579.44 C-51.14 578.55 -51.14 577.66 -51.13 576.74 C-51.14 575.79 -51.14 574.84 -51.14 573.86 C-51.15 570.64 -51.15 567.43 -51.15 564.21 C-51.15 561.89 -51.15 559.58 -51.16 557.26 C-51.17 551.54 -51.17 545.82 -51.17 540.1 C-51.18 533.25 -51.19 526.4 -51.19 519.55 C-51.22 502.99 -51.23 486.44 -51.23 469.88 C-51.24 462.05 -51.24 454.22 -51.25 446.39 C-51.27 419.58 -51.28 392.78 -51.29 365.97 C-51.29 364.29 -51.29 362.61 -51.29 360.92 C-51.29 360.09 -51.29 359.25 -51.29 358.39 C-51.29 354.16 -51.29 349.94 -51.3 345.71 C-51.3 344.87 -51.3 344.03 -51.3 343.17 C-51.3 315.96 -51.33 288.75 -51.36 261.54 C-51.39 232.77 -51.41 204.01 -51.42 175.24 C-51.42 172.09 -51.42 168.93 -51.42 165.77 C-51.42 164.61 -51.42 164.61 -51.42 163.42 C-51.42 150.9 -51.44 138.39 -51.46 125.88 C-51.48 113.3 -51.48 100.72 -51.47 88.14 C-51.47 81.33 -51.47 74.51 -51.49 67.7 C-51.51 61.46 -51.51 55.23 -51.49 48.99 C-51.49 46.73 -51.49 44.47 -51.51 42.22 C-51.52 39.15 -51.51 36.08 -51.49 33.01 C-51.51 32.14 -51.52 31.26 -51.53 30.36 C-51.42 20.63 -47.63 12.1 -41 5 C-29.31 -5.69 -14.23 -7.18 0 0 Z " fill="#FDFDFD" transform="translate(529,208)"/>
<path d="M0 0 C7.29 6.21 11.58 13.56 12.39 23.14 C12.5 27.25 12.52 31.34 12.5 35.45 C12.5 37.04 12.51 38.63 12.52 40.22 C12.53 44.58 12.53 48.94 12.53 53.3 C12.52 58 12.54 62.71 12.55 67.41 C12.57 76.63 12.58 85.84 12.57 95.05 C12.57 102.54 12.58 110.03 12.58 117.52 C12.59 119.68 12.59 121.84 12.59 124 C12.59 125.07 12.59 126.15 12.59 127.25 C12.61 147.57 12.61 167.89 12.61 188.2 C12.6 206.78 12.62 225.36 12.65 243.93 C12.69 263.02 12.7 282.1 12.7 301.18 C12.7 311.89 12.7 322.6 12.73 333.31 C12.75 342.43 12.75 351.55 12.73 360.67 C12.72 365.32 12.72 369.97 12.74 374.62 C12.76 378.88 12.76 383.14 12.73 387.4 C12.73 388.94 12.73 390.47 12.75 392.01 C12.84 403.68 11.11 414.53 2.78 423.33 C-6.81 431.71 -16.37 432.72 -28.66 432.04 C-33.44 431.51 -37.07 429.59 -40.89 426.79 C-41.47 426.4 -42.05 426 -42.64 425.59 C-48.86 420.92 -53.05 414.32 -54.89 406.79 C-55.34 401.6 -55.3 396.41 -55.28 391.21 C-55.29 389.61 -55.29 388.01 -55.3 386.42 C-55.31 382.04 -55.31 377.67 -55.3 373.29 C-55.3 368.57 -55.31 363.85 -55.32 359.12 C-55.34 349.88 -55.34 340.63 -55.33 331.38 C-55.33 323.86 -55.33 316.35 -55.33 308.83 C-55.34 307.76 -55.34 306.69 -55.34 305.59 C-55.34 303.41 -55.34 301.24 -55.34 299.06 C-55.36 278.68 -55.35 258.29 -55.34 237.91 C-55.33 219.26 -55.34 200.62 -55.37 181.97 C-55.39 162.82 -55.4 143.67 -55.39 124.52 C-55.39 113.77 -55.39 103.03 -55.41 92.28 C-55.42 83.13 -55.42 73.98 -55.41 64.82 C-55.4 60.16 -55.4 55.49 -55.41 50.82 C-55.43 46.55 -55.42 42.27 -55.4 37.99 C-55.4 36.45 -55.4 34.91 -55.41 33.36 C-55.48 22.07 -54.02 12.72 -46.79 3.68 C-33.49 -9.54 -15.09 -10.81 0 0 Z " fill="#FEFEFE" transform="translate(796.89453125,300.20703125)"/>
<path d="M0 0 C7.61 6.22 12.7 13.55 14.75 23.25 C14.84 24.95 14.88 26.66 14.88 28.37 C14.89 29.4 14.89 30.44 14.9 31.51 C14.9 32.65 14.9 33.8 14.9 34.97 C14.9 36.18 14.9 37.4 14.91 38.64 C14.92 42.01 14.92 45.38 14.92 48.75 C14.93 52.38 14.94 56.01 14.95 59.64 C14.97 68.41 14.98 77.18 14.99 85.95 C14.99 90.09 15 94.22 15 98.35 C15.02 112.09 15.03 125.83 15.04 139.57 C15.04 143.14 15.04 146.7 15.05 150.27 C15.05 151.15 15.05 152.04 15.05 152.95 C15.05 167.3 15.08 181.65 15.11 196 C15.15 210.73 15.16 225.47 15.17 240.21 C15.17 248.48 15.18 256.75 15.2 265.02 C15.23 272.07 15.23 279.11 15.22 286.16 C15.22 289.75 15.22 293.34 15.24 296.93 C15.26 300.84 15.25 304.74 15.24 308.64 C15.25 309.77 15.26 310.89 15.27 312.05 C15.18 322.82 12.26 332.32 4.75 340.25 C-2.24 346.87 -10.69 350.38 -20.31 350.75 C-29.51 350.39 -37.65 346.65 -44.25 340.25 C-51.8 331.02 -53.7 322.52 -53.64 310.85 C-53.64 309.61 -53.65 308.37 -53.65 307.09 C-53.67 303.68 -53.66 300.26 -53.66 296.84 C-53.65 293.14 -53.66 289.45 -53.67 285.75 C-53.69 278.52 -53.69 271.29 -53.69 264.06 C-53.68 258.19 -53.69 252.31 -53.69 246.43 C-53.69 245.59 -53.69 244.76 -53.69 243.89 C-53.69 242.19 -53.7 240.49 -53.7 238.79 C-53.71 222.85 -53.71 206.9 -53.69 190.96 C-53.68 176.38 -53.7 161.8 -53.72 147.22 C-53.75 132.25 -53.76 117.27 -53.75 102.29 C-53.74 93.88 -53.75 85.48 -53.76 77.07 C-53.78 69.92 -53.78 62.76 -53.76 55.61 C-53.75 51.96 -53.75 48.31 -53.77 44.66 C-53.78 40.7 -53.77 36.74 -53.75 32.78 C-53.76 31.63 -53.77 30.49 -53.78 29.3 C-53.69 19.02 -50.38 10.74 -43.25 3.25 C-29.61 -7.94 -15.39 -8.29 0 0 Z " fill="#FDFDFD" transform="translate(399.25,340.75)"/>
<path d="M0 0 C8.66 5.44 14.35 12.43 17.11 22.32 C17.39 25.28 17.38 28.22 17.37 31.19 C17.38 32.07 17.38 32.95 17.39 33.85 C17.4 36.8 17.4 39.75 17.4 42.69 C17.4 44.81 17.41 46.92 17.42 49.03 C17.43 54.77 17.44 60.51 17.44 66.25 C17.44 69.84 17.45 73.43 17.45 77.01 C17.47 89.53 17.48 102.05 17.48 114.57 C17.47 126.23 17.5 137.89 17.53 149.56 C17.55 159.57 17.56 169.59 17.56 179.61 C17.56 185.59 17.57 191.57 17.59 197.55 C17.61 203.18 17.61 208.81 17.59 214.43 C17.59 216.5 17.6 218.56 17.61 220.62 C17.62 223.44 17.62 226.26 17.6 229.08 C17.61 229.89 17.62 230.7 17.63 231.54 C17.52 240.64 13.35 248.79 7.11 255.32 C-3.19 263.53 -13.03 264.75 -25.89 263.32 C-29.74 262.21 -32.67 260.67 -35.89 258.32 C-37.5 257.24 -37.5 257.24 -39.14 256.14 C-46.57 248.54 -50.2 240.12 -50.16 229.58 C-50.17 228.7 -50.17 227.82 -50.18 226.92 C-50.19 223.97 -50.19 221.02 -50.19 218.07 C-50.19 215.96 -50.2 213.84 -50.21 211.73 C-50.22 205.98 -50.23 200.24 -50.23 194.5 C-50.23 189.7 -50.24 184.9 -50.25 180.11 C-50.26 168.79 -50.27 157.47 -50.27 146.16 C-50.26 134.49 -50.29 122.82 -50.32 111.15 C-50.34 101.12 -50.35 91.1 -50.35 81.08 C-50.35 75.09 -50.36 69.11 -50.38 63.13 C-50.4 57.49 -50.4 51.86 -50.38 46.23 C-50.38 44.17 -50.39 42.11 -50.4 40.04 C-50.41 37.22 -50.4 34.4 -50.39 31.57 C-50.4 30.76 -50.41 29.95 -50.42 29.12 C-50.31 20.11 -46.23 11.7 -39.89 5.32 C-28.5 -3.11 -13.37 -6.56 0 0 Z " fill="#FEFEFE" transform="translate(659.89453125,382.67578125)"/>
<path d="M0 0 C1.07 0.62 1.07 0.62 2.17 1.25 C3.23 1.85 3.23 1.85 4.3 2.46 C11.48 7.18 16.49 14.81 18.75 23.06 C19.63 27.68 19.46 32.38 19.46 37.07 C19.47 38.24 19.47 39.41 19.48 40.62 C19.5 44.49 19.5 48.36 19.5 52.23 C19.51 53.57 19.51 54.91 19.51 56.25 C19.53 63.26 19.54 70.28 19.54 77.29 C19.54 83.81 19.56 90.32 19.59 96.83 C19.62 102.45 19.63 108.06 19.63 113.67 C19.63 117.02 19.63 120.36 19.65 123.7 C19.67 127.44 19.67 131.17 19.65 134.91 C19.67 136 19.68 137.09 19.69 138.21 C19.6 148.5 16.86 157.26 10.23 165.24 C6.68 168.7 2.6 171.07 -1.83 173.25 C-2.59 173.62 -3.35 173.99 -4.13 174.38 C-12.43 177.05 -22.64 176.39 -30.46 172.68 C-38.3 168.09 -43.49 162.73 -46.83 154.25 C-47.34 153.07 -47.34 153.07 -47.87 151.87 C-49.26 146.65 -49.13 141.62 -49.12 136.25 C-49.13 135.05 -49.14 133.84 -49.14 132.6 C-49.16 129.31 -49.17 126.02 -49.17 122.73 C-49.17 120.67 -49.17 118.6 -49.18 116.54 C-49.2 109.34 -49.2 102.14 -49.2 94.94 C-49.2 88.24 -49.22 81.55 -49.25 74.86 C-49.28 69.1 -49.29 63.33 -49.29 57.57 C-49.29 54.14 -49.29 50.7 -49.32 47.27 C-49.34 43.43 -49.33 39.6 -49.32 35.76 C-49.33 34.64 -49.34 33.51 -49.35 32.36 C-49.26 21.4 -46.08 13.4 -38.43 5.52 C-27.69 -3.88 -13.07 -6.33 0 0 Z " fill="#FDFDFD" transform="translate(262.83203125,426.75390625)"/>
</svg>
